<svg width="801" height="818" viewBox="0 0 801 818" fill="none" xmlns="http://www.w3.org/2000/svg">
<path fill-rule="evenodd" clip-rule="evenodd" d="M400.433 0.432617C179.519 0.432617 0.433105 183.41 0.433105 409.124C0.433105 634.837 179.519 817.815 400.433 817.815C621.347 817.815 800.433 634.837 800.433 409.124C800.433 183.41 621.347 0.432617 400.433 0.432617ZM192.46 338.928H283.109V617.208H192.46V338.928ZM289.079 252.845C288.491 225.56 269.394 204.778 238.384 204.778C207.373 204.778 187.1 225.56 187.1 252.845C187.1 279.565 206.774 300.946 237.207 300.946H237.786C269.394 300.946 289.079 279.565 289.079 252.845ZM505.652 332.394C565.303 332.394 610.023 372.176 610.023 457.651L610.019 617.208H519.374V468.328C519.374 430.933 506.257 405.415 473.441 405.415C448.398 405.415 433.481 422.618 426.93 439.233C424.533 445.188 423.944 453.484 423.944 461.801V617.215H333.285C333.285 617.215 334.48 365.048 333.285 338.936H423.944V378.352C435.976 359.404 457.524 332.394 505.652 332.394Z" fill="#FFD700"/>
</svg>
