<svg width="801" height="818" viewBox="0 0 801 818" fill="none" xmlns="http://www.w3.org/2000/svg">
<path fill-rule="evenodd" clip-rule="evenodd" d="M400.433 0.432861C179.519 0.432861 0.433105 183.41 0.433105 409.124C0.433105 634.838 179.519 817.815 400.433 817.815C621.347 817.815 800.433 634.838 800.433 409.124C800.433 183.41 621.347 0.432861 400.433 0.432861ZM389.293 346.764L388.453 332.622C385.935 295.969 408.039 262.491 443.013 249.504C455.883 244.886 477.707 244.309 491.976 248.349C497.572 250.081 508.204 255.853 515.758 261.048L529.468 270.572L544.577 265.666C552.971 263.068 564.162 258.739 569.199 255.853C573.955 253.256 578.152 251.813 578.152 252.679C578.152 257.585 567.8 274.324 559.126 283.559C547.375 296.546 550.732 297.701 574.515 289.043C588.784 284.136 589.064 284.136 586.266 289.62C584.587 292.506 575.914 302.607 566.68 311.842C551.012 327.716 550.173 329.447 550.173 342.723C550.173 363.214 540.66 405.928 531.147 429.305C513.52 473.173 475.748 518.483 437.976 541.283C384.816 573.318 314.029 581.399 254.433 562.64C234.568 556.291 200.433 540.129 200.433 537.243C200.433 536.377 210.785 535.223 223.376 534.934C249.676 534.357 275.977 526.853 298.36 513.577L313.469 504.342L296.122 498.281C271.5 489.623 249.397 469.709 243.801 450.95C242.122 444.889 242.682 444.601 258.35 444.601L274.578 444.312L260.868 437.674C244.64 429.305 229.811 415.163 222.537 400.733C217.221 390.343 210.506 364.08 212.464 362.06C213.024 361.194 218.899 362.926 225.614 365.234C244.92 372.449 247.438 370.718 236.246 358.596C215.262 336.662 208.827 304.05 218.899 273.169L223.656 259.316L242.122 278.076C279.894 315.883 324.381 338.394 375.303 345.032L389.293 346.764Z" fill="#FFD700"/>
</svg>
