<svg width="801" height="818" viewBox="0 0 801 818" fill="none" xmlns="http://www.w3.org/2000/svg">
<path fill-rule="evenodd" clip-rule="evenodd" d="M400.433 0.432861C179.519 0.432861 0.433105 183.41 0.433105 409.124C0.433105 634.838 179.519 817.815 400.433 817.815C621.347 817.815 800.433 634.838 800.433 409.124C800.433 183.41 621.347 0.432861 400.433 0.432861ZM567.125 268.627C585.484 273.774 599.942 288.94 604.849 308.2C613.765 343.106 613.765 415.937 613.765 415.937C613.765 415.937 613.765 488.766 604.849 523.674C599.942 542.934 585.484 558.1 567.125 563.25C533.855 572.602 400.432 572.602 400.432 572.602C400.432 572.602 267.009 572.602 233.736 563.25C215.378 558.1 200.919 542.934 196.013 523.674C187.099 488.766 187.099 415.937 187.099 415.937C187.099 415.937 187.099 343.106 196.013 308.2C200.919 288.94 215.378 273.774 233.736 268.627C267.009 259.272 400.432 259.272 400.432 259.272C400.432 259.272 533.855 259.272 567.125 268.627Z" fill="#FFD700"/>
<path d="M360.433 490.86V354.629L467.1 422.747L360.433 490.86Z" fill="#FFD700"/>
</svg>
