<svg width="801" height="818" viewBox="0 0 801 818" fill="none" xmlns="http://www.w3.org/2000/svg">
<path fill-rule="evenodd" clip-rule="evenodd" d="M400.433 0.432861C179.519 0.432861 0.433167 183.41 0.433167 409.124C0.433167 634.838 179.519 817.815 400.433 817.815C621.347 817.815 800.433 634.838 800.433 409.124C800.433 183.41 621.347 0.432861 400.433 0.432861ZM312.488 192.472C335.239 191.414 342.512 191.155 400.42 191.155C458.345 191.155 465.592 191.414 488.343 192.472C511.054 193.535 526.566 197.209 540.166 202.599C554.21 208.162 566.077 215.609 577.944 227.734C589.811 239.849 597.1 252.01 602.566 266.346C607.811 280.206 611.411 296.045 612.478 319.25C613.5 342.5 613.766 349.929 613.766 409.126C613.766 468.323 613.5 475.734 612.478 498.985C611.411 522.18 607.811 538.024 602.566 551.888C597.1 566.22 589.811 578.38 577.944 590.496C566.09 602.621 554.206 610.086 540.179 615.654C526.606 621.044 511.085 624.717 488.374 625.78C465.618 626.838 458.369 627.097 400.426 627.097C342.493 627.097 335.226 626.838 312.47 625.78C289.763 624.717 274.256 621.044 260.683 615.654C246.66 610.086 234.758 602.621 222.905 590.496C211.042 578.38 203.753 566.22 198.3 551.883C193.029 538.024 189.433 522.185 188.389 498.98C187.358 475.73 187.1 468.323 187.1 409.126C187.1 349.929 187.367 342.495 188.384 319.245C189.407 296.049 193.007 280.206 198.296 266.342C203.762 252.01 211.051 239.849 222.918 227.734C234.776 215.613 246.678 208.166 260.709 202.599C274.274 197.209 289.776 193.535 312.488 192.472ZM400.42 191.155C400.431 191.155 400.442 191.155 400.453 191.155H400.386C400.398 191.155 400.409 191.155 400.42 191.155Z" fill="#FFD700"/>
<path fill-rule="evenodd" clip-rule="evenodd" d="M381.315 230.436C385.031 230.43 389.029 230.431 393.343 230.433C395.623 230.435 397.991 230.436 400.453 230.436C457.414 230.436 464.165 230.644 486.659 231.689C507.459 232.661 518.748 236.212 526.268 239.195C536.223 243.146 543.321 247.869 550.784 255.498C558.25 263.127 562.873 270.392 566.748 280.564C569.668 288.239 573.148 299.773 574.095 321.025C575.117 344.003 575.339 350.905 575.339 409.076C575.339 467.247 575.117 474.15 574.095 497.127C573.144 518.38 569.668 529.914 566.748 537.588C562.882 547.76 558.25 555.003 550.784 562.628C543.317 570.257 536.228 574.979 526.268 578.93C518.757 581.927 507.459 585.469 486.659 586.441C464.169 587.485 457.414 587.712 400.453 587.712C343.488 587.712 336.737 587.485 314.248 586.441C293.448 585.46 282.159 581.909 274.634 578.926C264.678 574.975 257.567 570.252 250.1 562.623C242.634 554.994 238.011 547.747 234.136 537.57C231.216 529.896 227.736 518.361 226.789 497.109C225.767 474.132 225.562 467.229 225.562 409.022C225.562 350.815 225.767 343.948 226.789 320.971C227.74 299.719 231.216 288.184 234.136 280.501C238.003 270.329 242.634 263.063 250.1 255.434C257.567 247.805 264.678 243.082 274.634 239.123C282.154 236.126 293.448 232.584 314.248 231.607C333.928 230.699 341.555 230.427 381.315 230.381V230.436ZM514.33 266.628C500.196 266.628 488.73 278.33 488.73 292.775C488.73 307.216 500.196 318.932 514.33 318.932C528.463 318.932 539.93 307.216 539.93 292.775C539.93 278.335 528.463 266.619 514.33 266.619V266.628ZM290.896 409.126C290.896 347.309 339.95 297.189 400.453 297.189H400.449C460.952 297.189 509.992 347.309 509.992 409.126C509.992 470.944 460.956 521.041 400.453 521.041C339.95 521.041 290.896 470.944 290.896 409.126Z" fill="#FFD700"/>
<path d="M400.453 336.469C439.725 336.469 471.565 368.997 471.565 409.126C471.565 449.251 439.725 481.783 400.453 481.783C361.177 481.783 329.341 449.251 329.341 409.126C329.341 368.997 361.177 336.469 400.453 336.469V336.469Z" fill="#FFD700"/>
</svg>
